<svg width="86" height="75" viewBox="0 0 86 75" fill="none" xmlns="http://www.w3.org/2000/svg">
<path d="M54.3994 28.3644H58.692V45.6175H62.6545V51.6437H60.3431V57.1747H53.4913V50.9008L38.1369 51.0659V46.443L54.3994 28.3644Z" fill="#FEB69E"/>
<path d="M20.3874 31.088L28.8076 28.7766H32.2748V55.6882H26.7438L26.3311 34.6377L21.378 35.6283L20.3874 31.088Z" fill="#FFB59E"/>
<path fill-rule="evenodd" clip-rule="evenodd" d="M85.0275 11.111C85.0275 9.04724 83.3764 7.39622 81.3127 7.39622H72.3972C71.9019 2.85592 67.8569 -0.446117 63.3166 0.131739C59.4367 0.544494 56.4648 3.59888 56.0521 7.39622H49.7782C49.2829 2.85592 45.2379 -0.446117 40.6976 0.131739C36.8177 0.544494 33.8459 3.59888 33.4331 7.39622H26.8291C26.3337 2.85592 22.2887 -0.446117 17.7484 0.0491881C13.8686 0.461943 10.8142 3.51633 10.4014 7.39622C8.50275 7.56132 6.93428 9.12979 6.93428 11.0285V55.6885H1.32081C1.23826 55.6885 1.15571 55.6885 1.07316 55.7711C1.03189 55.7711 0.990611 55.7504 0.949336 55.7298C0.90806 55.7091 0.866785 55.6885 0.825509 55.6885C0.330204 55.6885 0 56.0187 0 56.514C0 60.9718 2.80673 64.8517 7.01683 66.255C7.01683 66.2963 6.99619 66.3376 6.97555 66.3788C6.95492 66.4201 6.93428 66.4614 6.93428 66.5027V71.1255C6.93428 73.0242 8.50275 74.5927 10.4014 74.5927H81.3952C83.459 74.5927 85.11 72.9417 85.11 70.8779L85.0275 11.111ZM81.3133 9.0469C82.469 9.0469 83.377 9.95496 83.377 11.1107V21.0993H76.1125V9.0469H81.3133ZM70.6634 7.39567C70.2506 4.09364 67.4439 1.61711 64.1418 1.61711C60.9224 1.61711 58.1156 4.09364 57.7029 7.39567H70.6634ZM41.5248 1.61711C44.8268 1.61711 47.6336 4.09364 48.0463 7.39567H35.0033C35.416 4.09364 38.2228 1.61711 41.5248 1.61711ZM25.0958 7.39567C24.683 4.09364 21.8763 1.61711 18.5742 1.61711C15.2722 1.61711 12.4655 4.09364 12.0527 7.39567H25.0958ZM10.3979 9.0471C10.6456 12.0189 12.5442 14.6606 15.2684 15.8163C15.2684 16.3116 15.4335 16.8894 15.6812 17.3022C16.1765 18.0451 16.9194 18.623 17.7449 18.7881C17.9926 18.8707 18.3228 18.8707 18.5704 18.8707C19.1483 18.8707 19.7262 18.7056 20.2215 18.4579C21.7899 17.5498 22.3678 15.4861 21.4597 13.9176C20.5517 12.3491 18.4879 11.7713 16.9194 12.6793C16.3416 13.0095 15.9288 13.4223 15.6812 14.0002C13.6999 13.0095 12.2966 11.1109 12.0489 8.88199H33.347C33.6773 11.8538 35.5759 14.4129 38.3001 15.6512C38.3827 17.1371 39.3733 18.3753 40.7766 18.7056C41.0243 18.7881 41.3545 18.7881 41.6021 18.7881C42.18 18.7881 42.7578 18.623 43.2532 18.3753C44.8216 17.4673 45.3995 15.4035 44.4914 13.835C44.0787 13.0921 43.3357 12.5142 42.4276 12.2666C41.6021 12.0189 40.6941 12.184 39.9511 12.5968C39.3733 12.927 38.9605 13.4223 38.7129 13.9176C36.7316 12.927 35.4108 11.0283 35.0806 8.79944H56.0485C56.3787 11.9364 58.4425 14.578 61.4143 15.7337C61.5794 17.1371 62.4875 18.2928 63.8083 18.623C64.056 18.7056 64.3862 18.7056 64.6338 18.7056C65.2117 18.7056 65.7895 18.5405 66.2849 18.2928C67.8533 17.3847 68.4312 15.4035 67.5231 13.7525C66.6151 12.184 64.6338 11.6062 62.9828 12.5142C62.405 12.8444 61.9096 13.4223 61.5794 14.0827C59.4331 13.1746 57.9472 11.1934 57.617 8.79944H74.4574V20.8519H8.58179V11.1109C8.58179 10.0377 9.32474 9.2122 10.3979 9.0471ZM17.2548 14.6604C17.6676 14.7429 18.1629 14.8255 18.5756 14.8255C19.071 14.8255 19.4012 15.1557 19.4012 15.651C19.4012 16.1463 19.071 16.4765 18.5756 16.4765C18.0803 16.4765 17.585 16.3939 17.0897 16.3114C17.0897 16.3527 17.1104 16.3733 17.131 16.3939C17.1516 16.4146 17.1723 16.4352 17.1723 16.4765C17.585 17.2194 18.5756 17.5496 19.4012 17.0543C19.7314 16.8067 20.0616 16.3939 20.1441 15.9812C20.2267 15.5684 20.2267 15.1557 19.979 14.7429C19.8139 14.4127 19.4012 14.0825 18.9884 14C18.5756 13.9174 18.1629 13.9174 17.7501 14.1651C17.6401 14.2201 17.53 14.3485 17.4199 14.4769C17.3649 14.5411 17.3099 14.6053 17.2548 14.6604ZM41.5262 14.8255C41.1134 14.8255 40.6181 14.7429 40.2054 14.6604L40.7007 14.1651C41.1134 13.9174 41.5262 13.9174 41.939 14C42.3517 14.0825 42.6819 14.4127 42.9296 14.7429C43.4249 15.4859 43.1772 16.559 42.4343 17.0543C41.6913 17.5497 40.6181 17.302 40.1228 16.559L40.0403 16.4765V16.3114C40.5356 16.3939 41.0309 16.4765 41.5262 16.4765C42.0215 16.4765 42.3517 16.1463 42.3517 15.651C42.3517 15.1557 42.0215 14.8255 41.5262 14.8255ZM63.2312 14.7428C63.5614 14.8253 63.8916 14.8253 64.2218 14.8253C64.7171 14.8253 65.1299 15.1555 65.1299 15.6508C65.1299 16.1461 64.7997 16.4763 64.3043 16.4763C63.8916 16.4763 63.5614 16.4763 63.2312 16.3938V16.4763C63.4788 16.8065 63.809 17.1368 64.2218 17.2193C64.6346 17.3019 65.0473 17.3019 65.4601 17.0542C66.203 16.6414 66.5332 15.6508 66.0379 14.8253C65.8728 14.4951 65.4601 14.1649 65.0473 14.0824C64.6346 13.9998 64.2218 13.9998 63.809 14.2475C63.5614 14.33 63.3963 14.4951 63.2312 14.7428ZM8.58179 22.7503H74.5399V56.5961C74.5399 61.3841 70.5775 65.264 65.7895 65.1814C61.7446 65.1814 58.2774 62.3747 57.3694 58.4948H59.5157C60.011 58.4948 60.3412 58.1646 60.3412 57.6693V52.1384H63.4781C63.9734 52.1384 64.3036 51.8082 64.3036 51.3129V46.0296C64.3036 45.5343 63.9734 45.2041 63.4781 45.2041H60.3412V27.951C60.3412 27.4557 60.011 27.1255 59.5157 27.1255H54.0673C53.8197 27.1255 53.572 27.208 53.4069 27.3731L37.2269 46.1122C37.0618 46.2773 36.9793 46.6075 37.0618 46.8551L38.135 51.478C38.2175 51.8907 38.5478 52.1384 38.9605 52.1384H52.4989V55.7706H33.5121V27.951C33.5121 27.4557 33.1819 27.1255 32.6866 27.1255H28.3114H28.0638L19.6436 29.602C19.2308 29.7671 18.9832 30.1799 19.0657 30.5926L20.3866 35.8759C20.4691 36.2886 20.9644 36.6188 21.3772 36.4537L25.5047 35.4631V55.6055H8.58179V22.7503ZM39.6216 50.405H53.3251C53.7378 50.405 54.1506 50.8177 54.1506 51.313V55.7708H55.7191C55.8158 55.7708 55.8842 55.7991 55.9408 55.8226C55.9809 55.8392 56.0151 55.8533 56.0493 55.8533C56.1318 55.7708 56.2969 55.7708 56.3795 55.7708C56.8748 55.7708 57.205 56.101 57.205 56.5963V56.844H58.6909V51.313C58.6909 50.8177 59.0211 50.4875 59.5164 50.4875H62.6533V46.8553H59.5164C59.0211 46.8553 58.6909 46.5251 58.6909 46.0298V28.7766H54.3983L38.7961 46.8553L39.6216 50.405ZM26.8263 33.8946C26.6612 33.7295 26.331 33.647 26.1659 33.7295L21.7907 34.8027L20.8 31.0879L28.3947 28.859H31.8619V55.7706H27.1565V34.5551C27.1565 34.3074 26.9914 34.0597 26.8263 33.8946ZM55.4723 57.3397H1.64908C2.14439 61.7975 5.85918 65.182 10.2344 65.182C10.3311 65.182 10.3995 65.2104 10.4561 65.2338C10.4962 65.2504 10.5304 65.2646 10.5646 65.2646C10.6471 65.182 10.8122 65.182 10.8948 65.182H60.1777C57.4535 63.4485 55.7199 60.5592 55.4723 57.3397ZM8.58179 71.2079V66.7502C9.15964 66.8327 9.7375 66.9153 10.3154 66.9153C10.3979 66.9153 10.563 66.9153 10.6456 66.8327C10.7281 66.9153 10.8107 66.9153 10.9758 66.9153H65.8721C69.4218 66.9153 72.6413 65.0992 74.5399 62.1273V72.9415H10.3154C9.40729 72.9415 8.58179 72.116 8.58179 71.2079ZM76.1125 72.9414H81.3133C82.469 72.9414 83.377 72.0333 83.377 70.8776V22.6679H76.1125V72.9414Z" fill="black"/>
<path fill-rule="evenodd" clip-rule="evenodd" d="M53.3269 36.0415C53.8222 36.0415 54.1524 36.3717 54.1524 36.867V46.1127C54.1524 46.608 53.8222 46.9382 53.3269 46.9382H45.4846C45.1543 46.9382 44.9067 46.7731 44.7416 46.4429C44.5765 46.1127 44.5765 45.7825 44.8241 45.5349L52.6665 36.3717C52.8316 36.1241 53.0792 36.0415 53.3269 36.0415ZM47.3032 45.2045H52.5039V39.0957L47.3032 45.2045Z" fill="black"/>
<path d="M75.1189 11.5235L79.9068 7.97382" stroke="black"/>
<path d="M75.0363 14.0005L82.3833 8.63464" stroke="black"/>
<path d="M75.2839 16.807L83.8692 10.2855" stroke="black"/>
<path d="M75.5315 19.2015L83.9517 13.0101" stroke="black"/>
<path d="M76.0295 21.7608L84.037 15.7346" stroke="black"/>
<path d="M79.3316 22.0071L84.1195 18.4575" stroke="black"/>
<path d="M52.9179 37.9397V45.6169H46.0662L52.9179 37.9397Z" fill="white"/>
</svg>
