<svg width="34" height="35" viewBox="0 0 34 35" fill="none" xmlns="http://www.w3.org/2000/svg">
<path fill-rule="evenodd" clip-rule="evenodd" d="M25.4096 24.2613L33.5835 32.4352C34.1386 32.9834 34.1386 33.8854 33.5835 34.4336C33.0284 34.9887 32.1333 34.9887 31.5782 34.4336L23.4043 26.2666C20.9341 28.2928 17.777 29.507 14.3284 29.507C6.41124 29.507 -0.000183105 23.0887 -0.000183105 15.1785C-0.000183105 7.26828 6.41124 0.849915 14.3284 0.849915C22.2386 0.849915 28.6569 7.26828 28.6569 15.1785C28.6569 18.6271 27.4357 21.7911 25.4096 24.2613ZM2.84373 15.1786C2.84373 21.5068 7.9923 26.6554 14.3274 26.6554C20.6556 26.6554 25.8111 21.5068 25.8111 15.1786C25.8111 8.85046 20.6556 3.69495 14.3274 3.69495C7.9923 3.69495 2.84373 8.85046 2.84373 15.1786Z" fill="white"/>
</svg>
